<svg width="150" height="100" viewBox="0 0 150 100" fill="none" xmlns="http://www.w3.org/2000/svg">
<path d="M146.405 83.3145C140.805 82.6893 135.44 80.5794 131.325 77.3495C127.652 74.4582 122.417 74.4061 118.77 77.3495C108.899 85.2681 90.8489 85.2681 80.8211 76.9588C77.3049 74.0414 72.2259 74.5884 68.6576 77.4276C58.7601 85.268 40.8143 85.242 30.8386 76.9848C27.3224 74.0675 22.1653 74.6666 18.5709 77.5058C14.5337 80.6836 9.19428 82.7414 3.54227 83.3405C1.48463 83.5489 0 85.3722 0 87.43V95.8174C0 98.1878 1.97951 100.193 4.3497 99.9851C11.851 99.3339 18.9616 97.0156 25.0303 93.2387C39.7464 102.251 60.7135 102.121 75.0389 93.2387C89.755 102.251 110.722 102.121 125.047 93.2387C131.116 96.9375 138.305 99.3078 145.65 99.959C148.02 100.167 150 98.1617 150 95.7914V87.5603C150.026 85.4764 148.515 83.5489 146.405 83.3145V83.3145ZM146.405 45.8056C140.805 45.1804 135.44 43.0705 131.325 39.8406C127.652 36.9493 122.417 36.8972 118.77 39.8406C108.899 47.7592 90.8489 47.7592 80.8211 39.4499C77.3049 36.5325 72.2259 37.0795 68.6576 39.9188C58.7601 47.7592 40.8143 47.7331 30.8386 39.4759C27.3224 36.5586 22.1653 37.1577 18.5709 39.9969C14.5337 43.1747 9.19428 45.2325 3.54227 45.8316C1.48463 46.04 0 47.8633 0 49.9211V58.3085C0 60.6789 1.97951 62.6846 4.3497 62.4762C11.851 61.825 18.9616 59.5067 25.0303 55.7298C39.7464 64.7424 60.7135 64.6121 75.0389 55.7298C89.755 64.7424 110.722 64.6121 125.047 55.7298C131.116 59.4286 138.305 61.7989 145.65 62.4501C148.02 62.6585 150 60.6528 150 58.2825V50.0514C150.026 47.9675 148.515 46.04 146.405 45.8056V45.8056ZM146.405 8.29667C140.805 7.64547 135.44 5.56164 131.325 2.33171C127.652 -0.559602 122.417 -0.611697 118.77 2.33171C108.899 10.2503 90.8489 10.2503 80.8211 1.94099C77.3049 -0.976367 72.2259 -0.429362 68.6576 2.40985C58.7601 10.2503 40.8143 10.2242 30.8386 1.96704C27.3224 -0.95032 22.1653 -0.351219 18.5709 2.488C14.5337 5.66583 9.19428 7.72361 3.54227 8.32271C1.48463 8.5311 0 10.3544 0 12.4122V20.7996C0 23.17 1.97951 25.1757 4.3497 24.9673C11.851 24.3161 18.9616 21.9978 25.0303 18.2209C39.7464 27.2334 60.7135 27.1032 75.0389 18.2209C89.755 27.2334 110.722 27.1032 125.047 18.2209C131.116 21.9197 138.305 24.29 145.65 24.9412C148.02 25.1496 150 23.1439 150 20.7736V12.5425C150.026 10.4586 148.515 8.5311 146.405 8.29667V8.29667Z" fill="white"/>
</svg>
